<svg width="20" height="16" viewBox="0 0 20 16" fill="none" xmlns="http://www.w3.org/2000/svg">
<path d="M10.5606 0.0910002C10.5782 0.0963506 10.5901 0.112297 10.5901 0.130656C10.5901 0.152751 10.6072 0.170506 10.6293 0.169932C10.6345 0.169796 10.6398 0.169729 10.6449 0.16986C10.6497 0.169985 10.6545 0.17096 10.6591 0.172563C10.7685 0.210601 10.8692 0.289888 10.9564 0.376792C10.9814 0.401765 10.999 0.43309 11.0091 0.466993C11.0099 0.469818 11.0107 0.472643 11.0116 0.475565C11.0203 0.505061 11.0345 0.533454 11.0559 0.555523C11.3182 0.874606 11.3399 1.33663 11.3354 1.74651C11.3356 1.80329 11.3351 1.86487 11.3354 1.92165C11.3361 2.07599 11.3363 2.22268 11.3354 2.37703C11.3347 2.54411 11.3351 2.73537 11.3354 2.90246C11.3359 3.22903 11.3364 3.5567 11.3354 3.88327C11.3343 4.26379 11.3354 4.62367 11.3354 5.0042C11.3354 5.68306 11.337 6.35701 11.3354 7.03587C11.3339 7.69435 11.3355 8.37404 11.3354 9.03252C11.3354 9.07312 11.3354 9.09577 11.3354 9.13761C11.3354 9.17814 11.3354 9.23596 11.3354 9.27772C11.3354 9.35934 11.3354 9.44131 11.3354 9.52293C11.3354 9.56318 11.3354 9.58654 11.3354 9.62801C11.3353 10.2562 11.3362 10.8914 11.3354 11.5196C11.3351 11.7471 11.3355 11.9576 11.3354 12.1851C11.3353 12.5458 11.3365 12.9104 11.3354 13.271C11.335 13.4358 11.3354 13.5967 11.3354 13.7614C11.3355 13.9122 11.3361 14.066 11.3354 14.2168C11.3352 14.2713 11.3353 14.3374 11.3354 14.3919C11.3364 14.8768 11.3147 14.8938 11.2216 15.1039C11.2153 15.1182 11.2014 15.1276 11.1857 15.1276C11.1652 15.1276 11.1474 15.1433 11.1475 15.1638C11.1477 15.1993 11.1534 15.2158 11.1491 15.2677C11.1035 15.4931 10.9694 15.5948 10.8075 15.723C10.4554 15.9588 10.127 16.0557 9.72052 15.9682C9.65153 15.9448 9.56978 15.929 9.50313 15.8982C9.47267 15.8851 9.44135 15.8767 9.40997 15.8632C9.39515 15.8559 9.38637 15.8503 9.37702 15.8444C9.35964 15.8336 9.34785 15.8154 9.34785 15.795C9.34785 15.7729 9.33451 15.7522 9.31608 15.74C9.30643 15.7337 9.29668 15.7273 9.28574 15.723C9.05855 15.6086 8.92309 15.3733 8.81991 15.1276C8.79043 15.0607 8.77831 14.9872 8.76455 14.9155C8.71411 14.6525 8.72648 14.3809 8.72674 14.1117C8.72668 14.0566 8.72682 13.9916 8.72674 13.9366C8.72656 13.7857 8.7267 13.6321 8.72674 13.4812C8.72675 13.3183 8.72688 13.1887 8.72674 13.0258C8.72649 12.7069 8.72676 12.364 8.72674 12.045C8.72673 11.7857 8.72683 11.5337 8.72674 11.2744C8.72648 10.5389 8.72672 9.803 8.72674 9.06755C8.72674 9.02792 8.72674 9.00329 8.72674 8.96246C8.72674 8.92279 8.72674 8.86323 8.72674 8.82235C8.72675 8.17927 8.72716 7.53883 8.72674 6.89576C8.72631 6.23515 8.72671 5.59475 8.72674 4.93414C8.72675 4.56338 8.72706 4.18397 8.72674 3.81321C8.72647 3.49756 8.72654 3.18308 8.72674 2.86743C8.72684 2.70647 8.727 2.53799 8.72674 2.37703C8.72651 2.2295 8.72648 2.10421 8.72674 1.95668C8.72678 1.90348 8.7269 1.83473 8.72674 1.78153C8.7259 1.49179 8.73412 1.21527 8.78425 0.931261C8.78685 0.916504 8.7994 0.905812 8.81438 0.905812C8.83344 0.905812 8.84922 0.88864 8.85116 0.869681C8.852 0.861462 8.85274 0.853083 8.85183 0.842867C8.85141 0.838133 8.85122 0.833293 8.85179 0.828573C8.86929 0.681427 8.91598 0.627292 9.00624 0.520494C9.06156 0.456871 9.05364 0.454476 9.09941 0.380378C9.12044 0.349498 9.14022 0.326948 9.16136 0.308894C9.23354 0.247221 9.33106 0.223002 9.40997 0.170205C9.77267 -0.0582422 10.1729 -0.0271376 10.5606 0.0910002Z" fill="#030303"/>
<path d="M14.8559 3.3063C14.8759 3.312 14.8894 3.33015 14.8894 3.35095C14.8894 3.37022 14.9011 3.3878 14.919 3.39501C14.931 3.39982 14.943 3.40468 14.9552 3.40961C15.1666 3.5131 15.3976 3.72455 15.499 3.95795C15.5058 3.97848 15.5125 3.99901 15.5194 4.02017C15.5404 4.08606 15.5404 4.08606 15.5712 4.14642C15.7071 4.45036 15.6763 4.7903 15.6746 5.12152C15.6747 5.1928 15.6748 5.26408 15.675 5.33537C15.6753 5.52823 15.6748 5.72108 15.6742 5.91394C15.6737 6.11594 15.6738 6.31794 15.6738 6.51995C15.6738 6.85894 15.6732 7.19793 15.6724 7.53693C15.6715 7.92892 15.6712 8.32091 15.6712 8.71291C15.6713 9.13041 15.6709 9.54791 15.6703 9.96542C15.6702 10.0857 15.6701 10.206 15.6701 10.3263C15.6701 10.5152 15.6697 10.704 15.6691 10.8929C15.6689 10.9622 15.6689 11.0315 15.6689 11.1009C15.6689 11.1954 15.6686 11.29 15.6682 11.3845C15.6682 11.412 15.6683 11.4396 15.6684 11.4679C15.6674 11.5991 15.6585 11.7045 15.6113 11.8208C15.6053 11.8357 15.5908 11.8452 15.5747 11.8452C15.5555 11.8452 15.5387 11.8585 15.5346 11.8772C15.5308 11.8942 15.527 11.9113 15.5231 11.9288C15.442 12.1617 15.2934 12.3589 15.1116 12.5027C15.1021 12.5102 15.0906 12.5141 15.0786 12.5141C15.0544 12.5141 15.033 12.53 15.0261 12.5532C15.0237 12.5615 15.0212 12.5698 15.0187 12.5782C15.0119 12.6014 14.996 12.6209 14.9745 12.6319C14.9329 12.6534 14.9195 12.6584 14.8468 12.6855C14.6964 12.7411 14.5403 12.7888 14.3799 12.79C14.3469 12.7911 14.3469 12.7911 14.3131 12.7921C14.1558 12.7934 14.0519 12.7604 13.9111 12.6813C13.8904 12.6715 13.8697 12.6617 13.8484 12.6517C13.5437 12.4951 13.2814 12.1964 13.1621 11.8429C13.0534 11.5141 13.0562 11.1915 13.0585 10.8446C13.0583 10.7759 13.0581 10.7072 13.0577 10.6385C13.057 10.4535 13.0575 10.2685 13.0581 10.0835C13.0587 9.88894 13.0584 9.69436 13.0582 9.49978C13.058 9.17311 13.0585 8.84645 13.0595 8.51979C13.0606 8.14341 13.0606 7.76705 13.0599 7.39067C13.0593 7.027 13.0595 6.66334 13.0601 6.29966C13.0603 6.14563 13.0603 5.99161 13.06 5.83758C13.0596 5.6558 13.0601 5.47404 13.061 5.29226C13.0613 5.226 13.0613 5.15973 13.061 5.09347C13.0598 4.77696 13.0691 4.47877 13.1463 4.17278C13.152 4.15027 13.1576 4.12776 13.1634 4.10456C13.2542 3.78702 13.4855 3.55123 13.7333 3.38309C14.0906 3.2051 14.4809 3.19939 14.8559 3.3063Z" fill="#030303"/>
<path d="M6.02259 3.24263C6.04156 3.24639 6.05516 3.26291 6.05516 3.28225C6.05516 3.30185 6.06903 3.31897 6.08827 3.32274C6.10546 3.32611 6.12277 3.32951 6.14039 3.33297C6.3084 3.38707 6.43064 3.52273 6.55913 3.65071C6.5898 3.68111 6.5898 3.68111 6.62109 3.71212C6.79007 3.89027 6.85613 4.07002 6.8825 4.32488C6.88415 4.34083 6.8973 4.3531 6.91335 4.3531C6.93045 4.3531 6.94455 4.36695 6.94457 4.38406C6.94593 5.32589 6.94696 6.26773 6.9476 7.20957C6.94791 7.65165 6.94832 8.09374 6.949 8.53583C6.94959 8.92109 6.94997 9.30634 6.95011 9.6916C6.95018 9.89565 6.95037 10.0997 6.9508 10.3038C6.9512 10.4957 6.95132 10.6877 6.95123 10.8797C6.95125 10.9502 6.95137 11.0207 6.9516 11.0913C6.95189 11.1874 6.95182 11.2836 6.95166 11.3798C6.95183 11.4078 6.952 11.4358 6.95218 11.4647C6.95157 11.5983 6.94445 11.7024 6.89514 11.8222C6.88934 11.8363 6.87564 11.8452 6.8604 11.8452C6.84084 11.8452 6.82415 11.8598 6.82177 11.8792C6.82013 11.8925 6.81848 11.906 6.8168 11.9197C6.75581 12.1957 6.50009 12.4449 6.29117 12.5894C6.05238 12.7309 5.77838 12.7873 5.50932 12.7637C5.35547 12.7503 5.20688 12.6978 5.07685 12.6145C5.05603 12.6024 5.0352 12.5903 5.01374 12.5778C4.7297 12.3984 4.56121 12.0938 4.43226 11.7644C4.4272 11.7515 4.42465 11.7377 4.42465 11.7239C4.42465 11.6964 4.42465 11.6688 4.42465 11.6408C4.42465 11.6244 4.41158 11.6111 4.39517 11.6111C4.37881 11.6111 4.36531 11.5978 4.36525 11.5815C4.36184 10.6662 4.35926 9.75091 4.35768 8.83562C4.35692 8.40602 4.35588 7.97643 4.35418 7.54683C4.3527 7.17227 4.35174 6.79771 4.35141 6.42314C4.35122 6.22492 4.35077 6.02672 4.34969 5.82851C4.34868 5.64166 4.34837 5.45483 4.34859 5.26798C4.34855 5.19968 4.34826 5.13138 4.34769 5.06308C4.34352 4.53922 4.38233 4.0817 4.72111 3.68416C5.09369 3.26077 5.5057 3.14019 6.02259 3.24263Z" fill="#030303"/>
<path d="M1.99166 5.11765C2.18502 5.26966 2.35288 5.42257 2.46796 5.65738C2.47958 5.68083 2.4912 5.70429 2.50317 5.72845C2.52415 5.78308 2.52685 5.79012 2.5272 5.85734C2.5273 5.8762 2.54231 5.8915 2.56116 5.8915C2.57612 5.8915 2.58961 5.90125 2.59377 5.91562C2.64958 6.10836 2.65387 6.2854 2.65257 6.48995C2.65258 6.52587 2.65258 6.56179 2.65259 6.59879C2.65255 6.71697 2.65209 6.83514 2.65163 6.95331C2.65152 7.03547 2.65143 7.11762 2.65137 7.19977C2.65115 7.41559 2.65056 7.63141 2.64991 7.84723C2.6493 8.06762 2.64903 8.28801 2.64873 8.5084C2.64811 8.93066 2.64714 9.35293 2.64592 9.77519C2.64587 9.79155 2.63282 9.80479 2.61646 9.80479C2.60006 9.80479 2.58654 9.81808 2.58654 9.83448C2.58654 9.86535 2.58654 9.89638 2.58654 9.92813C2.5581 10.2184 2.36491 10.5259 2.17718 10.7225C1.80426 11.0225 1.41597 11.1038 0.967269 11.023C0.663585 10.9325 0.425489 10.7382 0.259365 10.4361C0.23371 10.3823 0.208914 10.328 0.185251 10.273C0.175238 10.2501 0.165226 10.2271 0.15491 10.2034C0.122866 10.1246 0.103328 10.0649 0.0978814 9.98613C0.0959074 9.95758 0.0789051 9.93203 0.0521118 9.92196C0.0253851 9.9119 0.00732331 9.88625 0.00724371 9.8577C0.00592378 9.38419 0.00492523 8.91068 0.00430507 8.43717C0.00399957 8.20996 0.00358313 7.98276 0.00290413 7.75555C0.00224921 7.5363 0.00190529 7.31705 0.00175152 7.09779C0.00164194 7.01413 0.00142817 6.93046 0.00110827 6.8468C0.000678143 6.72965 0.000618472 6.61251 0.000645964 6.49536C0.000432796 6.46074 0.000219628 6.42612 0 6.39045C0.000408658 6.22962 0.0063165 6.09589 0.0586581 5.9469C0.0633153 5.93365 0.075766 5.92495 0.0898163 5.92495C0.1093 5.92495 0.124945 5.90852 0.123744 5.88907C0.122642 5.87122 0.121531 5.85324 0.120401 5.83493C0.132201 5.6 0.304268 5.41182 0.452061 5.2581C0.554569 5.1635 0.65209 5.10438 0.778163 5.05533C0.797308 5.04606 0.816454 5.03679 0.83618 5.02724C1.20914 4.86733 1.64888 4.89255 1.99166 5.11765Z" fill="#030303"/>
<path d="M19.3103 5.07424C19.3266 5.0828 19.3364 5.09958 19.3364 5.11793C19.3364 5.14008 19.3508 5.15992 19.3719 5.16662C19.3764 5.16807 19.3816 5.16972 19.3889 5.17203C19.3934 5.17346 19.3978 5.1753 19.4019 5.17758C19.563 5.26639 19.7198 5.42062 19.8212 5.59023C19.8344 5.61217 19.8438 5.63612 19.8498 5.66097C19.8682 5.73707 19.8826 5.81345 19.8946 5.89121C19.8976 5.9104 19.9139 5.92465 19.9333 5.92465C19.9488 5.92465 19.9632 5.93373 19.9687 5.94822C19.9943 6.01593 19.9925 6.06513 19.9928 6.14613C19.993 6.17871 19.9931 6.21129 19.9933 6.24486C19.9933 6.29868 19.9933 6.29868 19.9934 6.35359C19.9936 6.41013 19.9936 6.41013 19.9938 6.46781C19.9943 6.59305 19.9945 6.71829 19.9946 6.84352C19.9948 6.93044 19.995 7.01736 19.9952 7.10428C19.9954 7.2635 19.9956 7.42271 19.9957 7.58192C19.9958 7.81578 19.9964 8.04964 19.9972 8.28351C19.9979 8.48634 19.9982 8.68918 19.9982 8.89201C19.9983 8.97812 19.9985 9.06422 19.9989 9.15032C19.9994 9.27105 19.9994 9.39176 19.9992 9.51249C19.9995 9.5479 19.9997 9.5833 20 9.61978C19.9998 9.67268 19.9973 9.72308 19.9928 9.77138C19.9316 10.4298 19.3714 11.0545 18.7102 11.0567C18.6826 11.0568 18.6551 11.0569 18.6268 11.0571C18.4088 11.0529 18.2422 11.0076 18.0535 10.8886C18.04 10.8801 18.032 10.8654 18.032 10.8495C18.032 10.8258 18.0145 10.8056 17.991 10.8024C17.9843 10.8016 17.9776 10.8007 17.9708 10.7998C17.9671 10.7993 17.9633 10.7985 17.9597 10.7973C17.8121 10.75 17.7335 10.611 17.6466 10.4734C17.4726 10.1191 17.4005 9.80283 17.4008 9.4021C17.4006 9.36606 17.4004 9.33002 17.4002 9.29289C17.3997 9.17433 17.3996 9.05578 17.3995 8.93722C17.3993 8.85442 17.3991 8.77161 17.3989 8.68881C17.3985 8.51545 17.3984 8.3421 17.3985 8.16874C17.3985 7.94711 17.3977 7.7255 17.3966 7.50387C17.396 7.33291 17.3959 7.16195 17.3959 6.99099C17.3958 6.9093 17.3956 6.82762 17.3951 6.74593C17.3945 6.63147 17.3947 6.51705 17.3951 6.40259C17.3947 6.36919 17.3944 6.33578 17.394 6.30136C17.3971 5.91789 17.5387 5.5929 17.7683 5.31359C17.9011 5.17049 18.004 5.09572 18.177 5.061C18.1959 5.05722 18.2099 5.04116 18.2099 5.02192C18.2099 5.00261 18.2239 4.98589 18.243 4.98296C18.5998 4.92802 18.9781 4.89909 19.3103 5.07424Z" fill="#030303"/>
</svg>
